<svg width="1440" height="900" viewBox="0 0 1440 900" fill="none" xmlns="http://www.w3.org/2000/svg">
<g clip-path="url(#clip0)">
<rect width="1440" height="900" fill="white"/>
<rect width="1440" height="900" fill="url(#paint0_linear)"/>
<rect width="1440" height="900" fill="url(#paint1_radial)"/>
<rect width="1440" height="900" fill="url(#paint2_radial)" fill-opacity="0.6"/>
<rect x="-363" y="111.218" width="893.025" height="375.943" transform="rotate(-35 -363 111.218)" fill="url(#paint3_linear)"/>
<rect x="168" y="1029.27" width="1660.47" height="465.072" transform="rotate(-35 168 1029.27)" fill="url(#paint4_linear)" fill-opacity="0.4"/>
<rect x="314.732" y="961.274" width="1416.11" height="639.422" transform="rotate(-35 314.732 961.274)" fill="url(#paint5_linear)" fill-opacity="0.4"/>
<rect x="-310" y="-73.4959" width="492.531" height="375.943" transform="rotate(-35 -310 -73.4959)" fill="url(#paint6_linear)"/>
<rect x="578" y="920.886" width="1052.84" height="639.422" transform="rotate(-35 578 920.886)" fill="url(#paint7_linear)" fill-opacity="0.4"/>
<rect x="665.839" y="921.29" width="1002.99" height="639.422" transform="rotate(-35 665.839 921.29)" fill="url(#paint8_linear)" fill-opacity="0.4"/>
</g>
<defs>
<linearGradient id="paint0_linear" x1="-1.96785e-05" y1="900" x2="1651.5" y2="-339" gradientUnits="userSpaceOnUse">
<stop stop-color="#153276"/>
<stop offset="1" stop-color="#12AADC"/>
</linearGradient>
<radialGradient id="paint1_radial" cx="0" cy="0" r="1" gradientUnits="userSpaceOnUse" gradientTransform="translate(1158 -108) rotate(157.81) scale(1738.24 2781.19)">
<stop stop-color="#49D2FF" stop-opacity="0.71"/>
<stop offset="1" stop-color="#136CA7" stop-opacity="0"/>
</radialGradient>
<radialGradient id="paint2_radial" cx="0" cy="0" r="1" gradientUnits="userSpaceOnUse" gradientTransform="translate(-149.5 1134.5) rotate(-53.0725) scale(1392.3 2227.68)">
<stop stop-color="#153277"/>
<stop offset="1" stop-color="#1B71AC" stop-opacity="0"/>
</radialGradient>
<linearGradient id="paint3_linear" x1="-239.281" y1="317.216" x2="346.451" y2="452.676" gradientUnits="userSpaceOnUse">
<stop stop-color="#1469A6"/>
<stop offset="1" stop-color="#1469A6" stop-opacity="0"/>
</linearGradient>
<linearGradient id="paint4_linear" x1="320.45" y1="1041.69" x2="1402.7" y2="1046.88" gradientUnits="userSpaceOnUse">
<stop stop-color="#27AAF0"/>
<stop offset="0.692708" stop-color="#145799" stop-opacity="0"/>
</linearGradient>
<linearGradient id="paint5_linear" x1="413.129" y1="963.306" x2="1273.69" y2="975.632" gradientUnits="userSpaceOnUse">
<stop stop-color="#27AAF0"/>
<stop offset="1" stop-color="#145F9F" stop-opacity="0"/>
</linearGradient>
<linearGradient id="paint6_linear" x1="-268.787" y1="198.901" x2="183.769" y2="110.487" gradientUnits="userSpaceOnUse">
<stop stop-color="#136AAD"/>
<stop offset="1" stop-color="#1466A6" stop-opacity="0"/>
</linearGradient>
<linearGradient id="paint7_linear" x1="589.664" y1="920.882" x2="1263.59" y2="920.706" gradientUnits="userSpaceOnUse">
<stop stop-color="#27AAF0"/>
<stop offset="1" stop-color="#27AAF0" stop-opacity="0"/>
</linearGradient>
<linearGradient id="paint8_linear" x1="810.532" y1="1176.07" x2="1119.41" y2="1268.44" gradientUnits="userSpaceOnUse">
<stop stop-color="#28A0E0"/>
<stop offset="1" stop-color="#27AAF0" stop-opacity="0"/>
</linearGradient>
<clipPath id="clip0">
<rect width="1440" height="900" fill="white"/>
</clipPath>
</defs>
</svg>
