<svg width="19" height="19" viewBox="0 0 19 19" fill="none" xmlns="http://www.w3.org/2000/svg">
<path d="M3.98398 13H12V15.016H3.98398V13ZM3.98398 9.99999H12V12.016H3.98398V9.99999ZM3.98398 6.99999H12V9.01599H3.98398V6.99999ZM15.984 0.0159912V3.01599H18.984V4.98499H15.984V7.98499H14.015V4.98499H11.015V3.01599H14.015V0.0159912H15.984ZM14.016 17.219V9.99999H15.985V16.984C15.985 17.5153 15.7896 17.984 15.399 18.39C15.0083 18.796 14.5473 18.999 14.016 18.999H2.01598C1.48464 18.999 1.01598 18.796 0.609977 18.39C0.203977 17.984 0.000976562 17.5153 0.000976562 16.984V4.98399C0.000976562 4.45266 0.203977 3.99166 0.609977 3.60099C1.01598 3.21032 1.48464 3.01499 2.01598 3.01499H8.99998V4.98399H2.01598V17.218H14.016V17.219Z" fill="#313131" fill-opacity="0.73"/>
</svg>
