<svg width="24" height="21" viewBox="0 0 24 21" fill="none" xmlns="http://www.w3.org/2000/svg">
<path d="M11 11V17.586L8.70704 15.293C8.31604 14.902 7.68304 14.902 7.29304 15.293C6.90304 15.684 6.90204 16.317 7.29304 16.707L11.293 20.707C11.385 20.799 11.495 20.873 11.617 20.924C11.862 21.025 12.138 21.025 12.383 20.924C12.501 20.875 12.611 20.803 12.707 20.707L16.707 16.707C17.098 16.316 17.098 15.683 16.707 15.293C16.316 14.903 15.683 14.902 15.293 15.293L13 17.586V11C13 10.448 12.552 9.99999 12 9.99999C11.448 9.99999 11 10.448 11 11ZM21.455 17.908C22.81 16.955 23.651 15.541 23.915 14.03C24.179 12.519 23.865 10.904 22.912 9.54899C22.086 8.37499 20.914 7.58599 19.625 7.22499C19.098 7.07799 18.553 7.00199 18.004 6.99999H17.481C16.759 4.94199 15.344 3.28999 13.574 2.24199C11.593 1.06999 9.16204 0.652987 6.75504 1.26999C4.34804 1.88699 2.41704 3.42499 1.24504 5.40599C0.0730391 7.38699 -0.343961 9.81799 0.273039 12.225C0.644039 13.671 1.34804 14.95 2.25604 15.959C2.62604 16.369 3.25804 16.403 3.66804 16.033C4.07804 15.663 4.11204 15.031 3.74204 14.621C3.05004 13.852 2.50004 12.861 2.20904 11.728C1.72804 9.85499 2.05204 7.96699 2.96504 6.42399C3.87804 4.88099 5.37704 3.68799 7.25004 3.20799C9.12304 2.72799 11.011 3.05099 12.554 3.96399C14.097 4.87699 15.29 6.37599 15.77 8.24899C15.886 8.68399 16.276 8.99999 16.74 8.99999H17.996C18.366 9.00099 18.733 9.05199 19.086 9.15099C19.947 9.39199 20.725 9.91599 21.276 10.699C21.912 11.603 22.121 12.677 21.945 13.687C21.769 14.697 21.209 15.637 20.305 16.272C19.853 16.59 19.745 17.213 20.062 17.665C20.379 18.117 21.003 18.225 21.455 17.908Z" fill="black"/>
</svg>
