<svg width="36" height="30" viewBox="0 0 36 30" fill="none" xmlns="http://www.w3.org/2000/svg">
<path d="M36 25.5V9C36 7.758 35.4945 6.63 34.6815 5.8185C33.8685 5.007 32.742 4.5 31.5 4.5H26.3025L23.748 0.6675C23.475 0.2625 23.019 0 22.5 0H13.5C13.011 0.003 12.54 0.237 12.252 0.6675L9.6975 4.5H4.5C3.258 4.5 2.13 5.0055 1.3185 5.8185C0.507 6.6315 0 7.758 0 9V25.5C0 26.742 0.5055 27.87 1.3185 28.6815C2.1315 29.493 3.258 30 4.5 30H31.5C32.742 30 33.87 29.4945 34.6815 28.6815C35.493 27.8685 36 26.742 36 25.5ZM33 25.5C33 25.914 32.8335 26.2875 32.5605 26.5605C32.2875 26.8335 31.914 27 31.5 27H4.5C4.086 27 3.7125 26.8335 3.4395 26.5605C3.1665 26.2875 3 25.914 3 25.5V9C3 8.586 3.1665 8.2125 3.4395 7.9395C3.7125 7.6665 4.086 7.5 4.5 7.5H10.5C11.019 7.5 11.475 7.2375 11.748 6.8325L14.3025 3H21.6975L24.252 6.8325C24.54 7.263 25.011 7.497 25.5 7.5H31.5C31.914 7.5 32.2875 7.6665 32.5605 7.9395C32.8335 8.2125 33 8.586 33 9V25.5ZM25.5 16.5C25.5 14.43 24.6585 12.552 23.304 11.196C21.9495 9.84 20.07 9 18 9C15.93 9 14.052 9.8415 12.696 11.196C11.34 12.5505 10.5 14.43 10.5 16.5C10.5 18.57 11.3415 20.448 12.696 21.804C14.0505 23.16 15.93 24 18 24C20.07 24 21.948 23.1585 23.304 21.804C24.66 20.4495 25.5 18.57 25.5 16.5ZM22.5 16.5C22.5 17.7435 21.9975 18.8655 21.1815 19.6815C20.3655 20.4975 19.2435 21 18 21C16.7565 21 15.6345 20.4975 14.8185 19.6815C14.0025 18.8655 13.5 17.7435 13.5 16.5C13.5 15.2565 14.0025 14.1345 14.8185 13.3185C15.6345 12.5025 16.7565 12 18 12C19.2435 12 20.3655 12.5025 21.1815 13.3185C21.9975 14.1345 22.5 15.2565 22.5 16.5Z" fill="white"/>
</svg>
