<svg width="22" height="22" viewBox="0 0 22 22" fill="none" xmlns="http://www.w3.org/2000/svg">
<path d="M17.9732 4.41388L19.5592 5.99988L17.4732 8.08588L15.8872 6.49988L17.9732 4.41388ZM9.66117 11.3229C10.5452 12.1959 10.9922 13.3429 11.0002 14.4949C11.0082 15.6479 10.5762 16.8009 9.70317 17.6859C8.83017 18.5709 7.68317 19.0179 6.53017 19.0249C5.37717 19.0319 4.22417 18.6009 3.33917 17.7279L3.29717 17.6859C2.42317 16.8009 1.99217 15.6479 2.00017 14.4949C2.00817 13.3419 2.45517 12.1949 3.33917 11.3219C4.21817 10.4549 5.36217 10.0229 6.50817 10.0259C7.64917 10.0279 8.78617 10.4609 9.66017 11.3219L9.66117 11.3229ZM17.2662 2.29288C16.8752 2.68388 16.8752 3.31687 17.2662 3.70687L17.9732 4.41388L19.3872 2.99988L18.6802 2.29288C18.2892 1.90188 17.6562 1.90188 17.2662 2.29288ZM17.2662 2.29288C16.8752 2.68388 16.8752 3.31687 17.2662 3.70687C17.6572 4.09687 18.2902 4.09787 18.6802 3.70687C19.0702 3.31587 19.0712 2.68288 18.6802 2.29288C18.2892 1.90288 17.6562 1.90188 17.2662 2.29288L13.7662 5.79288C13.3752 6.18388 13.3752 6.81687 13.7662 7.20687L14.4732 7.91387L15.8872 6.49988L15.1802 5.79288C14.7892 5.40188 14.1562 5.40188 13.7662 5.79288C13.3762 6.18388 13.3752 6.81687 13.7662 7.20687C14.1572 7.59687 14.7902 7.59787 15.1802 7.20687C15.5702 6.81588 15.5712 6.18288 15.1802 5.79288C14.7892 5.40288 14.1562 5.40188 13.7662 5.79288L10.3052 9.25387C9.17617 8.43787 7.84317 8.02787 6.51217 8.02487C4.86017 8.02187 3.20417 8.64487 1.93517 9.89787C0.65817 11.1579 0.0121695 12.8189 0.000169546 14.4809C-0.0118305 16.1429 0.61317 17.8129 1.87317 19.0899L1.93517 19.1519C3.21217 20.4119 4.88217 21.0359 6.54417 21.0249C8.20617 21.0139 9.86717 20.3679 11.1272 19.0899C12.3872 17.8119 13.0112 16.1429 13.0002 14.4809C12.9912 13.1359 12.5662 11.7919 11.7272 10.6599L14.4732 7.91387L16.7662 10.2069C17.1572 10.5979 17.7902 10.5979 18.1802 10.2069L21.6802 6.70687C22.0712 6.31588 22.0712 5.68288 21.6802 5.29288L19.3872 2.99988L20.6802 1.70688C21.0712 1.31588 21.0712 0.682875 20.6802 0.292875C20.2892 -0.0971249 19.6562 -0.0981249 19.2662 0.292875L17.2662 2.29288Z" fill="#313131" fill-opacity="0.6"/>
</svg>
