<svg width="24" height="20" viewBox="0 0 24 20" fill="none" xmlns="http://www.w3.org/2000/svg">
<path d="M11 12.414V19C11 19.552 11.448 20 12 20C12.552 20 13 19.552 13 19V12.414L15.293 14.707C15.684 15.098 16.317 15.098 16.707 14.707C17.097 14.316 17.098 13.683 16.707 13.293L12.707 9.293C12.611 9.197 12.501 9.125 12.383 9.076C12.261 9.025 12.13 9 12 9C11.744 9 11.488 9.098 11.293 9.293L7.29296 13.293C6.90196 13.684 6.90196 14.317 7.29296 14.707C7.68396 15.097 8.31696 15.098 8.70696 14.707L11 12.414ZM20.869 17.268C22.323 16.475 23.32 15.166 23.753 13.694C24.186 12.222 24.058 10.582 23.265 9.128C22.586 7.883 21.528 6.972 20.305 6.465C19.581 6.165 18.801 6.006 18.007 6H17.48C16.755 3.943 15.336 2.292 13.563 1.248C11.58 0.0800014 9.14796 -0.332999 6.74196 0.289001C4.33596 0.911001 2.40896 2.451 1.23996 4.434C0.0709645 6.417 -0.341036 8.849 0.280964 11.255C0.652964 12.692 1.35396 13.965 2.25596 14.968C2.62496 15.379 3.25796 15.412 3.66796 15.043C4.07796 14.674 4.11196 14.041 3.74296 13.631C3.05496 12.866 2.50796 11.881 2.21696 10.754C1.73296 8.882 2.05296 6.993 2.96296 5.449C3.87296 3.905 5.36996 2.709 7.24196 2.225C9.11396 1.741 11.003 2.061 12.547 2.971C14.091 3.881 15.287 5.378 15.771 7.25C15.887 7.685 16.277 8 16.74 8H17.993C18.529 8.004 19.054 8.111 19.538 8.312C20.353 8.65 21.056 9.255 21.508 10.085C22.037 11.055 22.123 12.146 21.833 13.129C21.543 14.112 20.88 14.983 19.91 15.511C19.425 15.775 19.246 16.383 19.511 16.868C19.776 17.353 20.383 17.532 20.868 17.267L20.869 17.268Z" fill="black"/>
</svg>
