<svg width="20" height="20" viewBox="0 0 20 20" fill="none" xmlns="http://www.w3.org/2000/svg">
<path d="M13 2H17C17.276 2 17.525 2.111 17.707 2.293C17.889 2.475 18 2.724 18 3V17C18 17.276 17.889 17.525 17.707 17.707C17.525 17.889 17.276 18 17 18H13C12.448 18 12 18.448 12 19C12 19.552 12.448 20 13 20H17C17.828 20 18.58 19.663 19.121 19.121C19.662 18.579 20 17.828 20 17V3C20 2.172 19.663 1.42 19.121 0.879C18.579 0.338 17.828 0 17 0H13C12.448 0 12 0.448 12 1C12 1.552 12.448 2 13 2ZM10.586 9H1C0.448 9 0 9.448 0 10C0 10.552 0.448 11 1 11H10.586L7.293 14.293C6.902 14.684 6.902 15.317 7.293 15.707C7.684 16.097 8.317 16.098 8.707 15.707L13.707 10.707C13.803 10.611 13.875 10.501 13.924 10.383C13.973 10.265 14 10.136 14 10C14 9.87 13.975 9.739 13.924 9.617C13.875 9.499 13.803 9.389 13.707 9.293L8.707 4.293C8.316 3.902 7.683 3.902 7.293 4.293C6.903 4.684 6.902 5.317 7.293 5.707L10.586 9Z" fill="white"/>
</svg>
