<svg width="24" height="24" viewBox="0 0 24 24" fill="none" xmlns="http://www.w3.org/2000/svg">
<path d="M13.5379 13.4224C13.4113 13.5681 13.3346 13.7584 13.3346 13.9664V19.7955L11.6122 18.9534V13.9664C11.6131 13.7753 11.5459 13.5816 11.4089 13.4224L5.71715 6.84218H12.2568C12.395 6.84218 12.527 6.78499 12.6216 6.68418L13.2631 5.99996C13.5625 5.68064 13.3361 5.15796 12.8984 5.15796H3.86122C3.38583 5.15796 3 5.53523 3 6.00007C3 6.20807 3.07665 6.39839 3.20325 6.54407L9.88975 14.2747V19.4739C9.88975 19.8014 10.0809 20.0861 10.366 20.2267L13.8109 21.9109C14.2363 22.1189 14.7539 21.9505 14.9666 21.5345C15.0286 21.4116 15.0579 21.281 15.0571 21.1581V14.2747L16.3035 12.8336C16.5038 12.602 16.4508 12.2465 16.1917 12.0834L15.587 11.7026C15.3779 11.571 15.1041 11.6118 14.9424 11.7986L13.5379 13.4224Z" fill="#313131" fill-opacity="0.73"/>
<path d="M21.421 10.3333V9.45614C21.421 8.85088 21.175 8.30175 20.7789 7.90526C20.3829 7.50877 19.8333 7.26316 19.2281 7.26316H15.7193C15.114 7.26316 14.5649 7.50921 14.1684 7.90526C13.7719 8.30132 13.5263 8.85088 13.5263 9.45614V10.3333C13.5263 10.5754 13.7228 10.7719 13.9649 10.7719C14.207 10.7719 14.4035 10.5754 14.4035 10.3333V9.45614C14.4035 9.09254 14.5504 8.76447 14.789 8.52588C15.0276 8.28728 15.3557 8.14035 15.7193 8.14035H19.2281C19.5917 8.14035 19.9197 8.28728 20.1583 8.52588C20.3969 8.76447 20.5438 9.09254 20.5438 9.45614V10.3333C20.5438 10.5754 20.7403 10.7719 20.9824 10.7719C21.2246 10.7719 21.421 10.5754 21.421 10.3333ZM19.6667 4.19298C19.6667 3.58772 19.4206 3.0386 19.0246 2.64211C18.6285 2.24561 18.0789 2 17.4737 2C16.8684 2 16.3193 2.24605 15.9228 2.64211C15.5263 3.03816 15.2807 3.58772 15.2807 4.19298C15.2807 4.79825 15.5267 5.34737 15.9228 5.74386C16.3188 6.14035 16.8684 6.38597 17.4737 6.38597C18.0789 6.38597 18.6281 6.13991 19.0246 5.74386C19.421 5.34781 19.6667 4.79825 19.6667 4.19298ZM18.7895 4.19298C18.7895 4.55658 18.6425 4.88465 18.4039 5.12325C18.1653 5.36184 17.8373 5.50877 17.4737 5.50877C17.1101 5.50877 16.782 5.36184 16.5434 5.12325C16.3048 4.88465 16.1579 4.55658 16.1579 4.19298C16.1579 3.82939 16.3048 3.50132 16.5434 3.26272C16.782 3.02412 17.1101 2.87719 17.4737 2.87719C17.8373 2.87719 18.1653 3.02412 18.4039 3.26272C18.6425 3.50132 18.7895 3.82939 18.7895 4.19298Z" fill="#313131" fill-opacity="0.73"/>
</svg>
