<svg width="24" height="20" viewBox="0 0 24 20" fill="none" xmlns="http://www.w3.org/2000/svg">
<path d="M17 19V17C17 15.62 16.439 14.368 15.536 13.464C14.633 12.56 13.38 12 12 12H5C3.62 12 2.368 12.561 1.464 13.464C0.56 14.367 0 15.62 0 17V19C0 19.552 0.448 20 1 20C1.552 20 2 19.552 2 19V17C2 16.171 2.335 15.423 2.879 14.879C3.423 14.335 4.171 14 5 14H12C12.829 14 13.577 14.335 14.121 14.879C14.665 15.423 15 16.171 15 17V19C15 19.552 15.448 20 16 20C16.552 20 17 19.552 17 19ZM13.5 5C13.5 3.62 12.939 2.368 12.036 1.464C11.133 0.56 9.88 0 8.5 0C7.12 0 5.868 0.561 4.964 1.464C4.06 2.367 3.5 3.62 3.5 5C3.5 6.38 4.061 7.632 4.964 8.536C5.867 9.44 7.12 10 8.5 10C9.88 10 11.132 9.439 12.036 8.536C12.94 7.633 13.5 6.38 13.5 5ZM11.5 5C11.5 5.829 11.165 6.577 10.621 7.121C10.077 7.665 9.329 8 8.5 8C7.671 8 6.923 7.665 6.379 7.121C5.835 6.577 5.5 5.829 5.5 5C5.5 4.171 5.835 3.423 6.379 2.879C6.923 2.335 7.671 2 8.5 2C9.329 2 10.077 2.335 10.621 2.879C11.165 3.423 11.5 4.171 11.5 5ZM23 8H21V6C21 5.448 20.552 5 20 5C19.448 5 19 5.448 19 6V8H17C16.448 8 16 8.448 16 9C16 9.552 16.448 10 17 10H19V12C19 12.552 19.448 13 20 13C20.552 13 21 12.552 21 12V10H23C23.552 10 24 9.552 24 9C24 8.448 23.552 8 23 8Z" fill="white"/>
</svg>
