<svg width="22" height="22" viewBox="0 0 22 22" fill="none" xmlns="http://www.w3.org/2000/svg">
<path d="M11.897 0.557047C11.805 0.368047 11.649 0.205047 11.443 0.103047C10.948 -0.140953 10.348 0.0620473 10.104 0.557047L7.24599 6.34605L0.854993 7.28105C0.646993 7.31005 0.443993 7.40805 0.283993 7.57205C-0.102007 7.96805 -0.093007 8.60105 0.301993 8.98605L4.92499 13.489L3.83399 19.851C3.79799 20.058 3.82799 20.282 3.93499 20.485C4.19199 20.974 4.79699 21.162 5.28599 20.905L11 17.9L16.715 20.905C16.901 21.004 17.123 21.044 17.349 21.006C17.893 20.913 18.259 20.396 18.166 19.851L17.075 13.489L21.698 8.98605C21.849 8.84005 21.957 8.64205 21.99 8.41405C22.07 7.86805 21.692 7.36005 21.145 7.28005L14.755 6.34605L11.897 0.557047ZM11 3.25905L13.193 7.70305C13.344 8.00805 13.629 8.20205 13.945 8.25005L18.851 8.96705L15.302 12.424C15.058 12.662 14.961 12.993 15.014 13.309L15.851 18.192L11.465 15.885C11.164 15.727 10.818 15.737 10.534 15.885L6.14799 18.192L6.98499 13.309C7.04299 12.973 6.92599 12.648 6.69699 12.424L3.14799 8.96705L8.05499 8.24905C8.39099 8.20005 8.66399 7.98905 8.80699 7.70305L11 3.25905Z" fill="#313131" fill-opacity="0.73"/>
</svg>
