<svg width="24" height="24" viewBox="0 0 24 24" fill="none" xmlns="http://www.w3.org/2000/svg">
<path d="M13.5379 13.4224C13.4113 13.5681 13.3346 13.7584 13.3346 13.9664V19.7955L11.6122 18.9534V13.9664C11.6131 13.7753 11.5459 13.5816 11.4089 13.4224L5.71715 6.84218H12.2568C12.395 6.84218 12.527 6.78499 12.6216 6.68418L13.2631 5.99996C13.5625 5.68064 13.3361 5.15796 12.8984 5.15796H3.86122C3.38583 5.15796 3 5.53523 3 6.00007C3 6.20807 3.07665 6.39839 3.20325 6.54407L9.88975 14.2747V19.4739C9.88975 19.8014 10.0809 20.0861 10.366 20.2267L13.8109 21.9109C14.2363 22.1189 14.7539 21.9505 14.9666 21.5345C15.0286 21.4116 15.0579 21.281 15.0571 21.1581V14.2747L16.3035 12.8336C16.5038 12.602 16.4508 12.2465 16.1917 12.0834L15.587 11.7026C15.3779 11.571 15.1041 11.6118 14.9424 11.7986L13.5379 13.4224Z" fill="#313131" fill-opacity="0.73"/>
<path d="M19.0058 8.0063V5.9947H16.9942V8.0063H19.0058ZM22 5.9942H19.9884V8.0058H22V8.9884H19.9884V11H19.0058V8.9884H16.9942V11H16.0116V8.9884H14V8.0058H16.0116V5.9942H14V5.0116H16.0116V3H16.9942V5.0116H19.0058V3H19.9884V5.0116H22V5.9942Z" fill="#313131" fill-opacity="0.73"/>
</svg>
